<svg xmlns="http://www.w3.org/2000/svg" width="177.83087pt" height="131.82553pt" fill-rule="evenodd" viewBox="0 0 177.83087 131.82553"><g style="stroke:none;stroke-width:.689019"><path d="m311.832 457.77 52.2 27.216-52.056 26.64-52.344-26.496z" style="fill:#273785;stroke:none;stroke-width:.193545;stroke-linejoin:round" transform="matrix(1.45116 0 0 1.45152 -364.125 -637.499)"/><path d="M286.416 472.242v2.88h22.392v-2.88h-9.504v-1.872h-3.24v1.872zM294.264 490.458c-.792-.648-1.584-1.224-2.376-1.8-1.512 2.736-3.312 4.896-5.328 6.84.72.72 1.44 1.368 2.16 2.088 2.088-2.232 3.96-4.608 5.544-7.128M300.672 490.458a31 31 0 0 1 2.448-1.8c1.44 2.736 3.24 4.896 5.256 6.84l-2.088 2.088a43.6 43.6 0 0 1-5.616-7.128" style="fill:#fff;stroke:none;stroke-width:.193545;stroke-linejoin:round" transform="matrix(1.45116 0 0 1.45152 -364.125 -637.499)"/><path d="M340.128 451.794c.576 0 1.08-.504 1.08-1.08s-.504-1.08-1.08-1.08-1.008.504-1.008 1.08.432 1.08 1.008 1.08M328.824 447.402c.576 0 1.08-.504 1.08-1.08s-.504-1.008-1.08-1.008a.984.984 0 0 0-1.008 1.008c0 .576.432 1.08 1.008 1.08M317.376 445.53c.576 0 1.008-.504 1.008-1.08s-.432-1.08-1.008-1.08-1.08.504-1.08 1.08.504 1.08 1.08 1.08M305.784 445.746a.984.984 0 0 0 1.008-1.008c0-.576-.432-1.08-1.008-1.08s-1.08.504-1.08 1.08.504 1.008 1.08 1.008M294.264 447.978c.576 0 1.08-.504 1.08-1.08s-.504-1.008-1.08-1.008a.984.984 0 0 0-1.008 1.008c0 .576.432 1.08 1.008 1.08M283.248 452.946c.576 0 1.008-.504 1.008-1.08s-.432-1.08-1.008-1.08-1.008.504-1.008 1.08.432 1.08 1.008 1.08M273.816 459.57c.576 0 1.008-.504 1.008-1.08a.984.984 0 0 0-1.008-1.008.984.984 0 0 0-1.008 1.008c0 .576.432 1.08 1.008 1.08M266.04 468.786c.504 0 1.008-.504 1.008-1.08s-.504-1.008-1.008-1.008c-.576 0-1.08.432-1.08 1.008s.504 1.08 1.08 1.08M266.184 502.842c.576 0 1.08-.432 1.08-1.008s-.504-1.008-1.08-1.008a.984.984 0 0 0-1.008 1.008.984.984 0 0 0 1.008 1.008M273.816 511.986a.984.984 0 0 0 1.008-1.008c0-.576-.432-1.08-1.008-1.08s-1.008.504-1.008 1.08a.984.984 0 0 0 1.008 1.008M283.248 518.682c.576 0 1.008-.504 1.008-1.08a.984.984 0 0 0-1.008-1.008.984.984 0 0 0-1.008 1.008c0 .576.432 1.08 1.008 1.08M293.688 523.434c.576 0 1.08-.504 1.08-1.08s-.504-1.08-1.08-1.08-1.008.504-1.008 1.08.432 1.08 1.008 1.08M305.424 525.738c.504 0 1.008-.432 1.008-1.008s-.504-1.008-1.008-1.008c-.576 0-1.08.432-1.08 1.008s.504 1.008 1.08 1.008M354.168 454.026c-4.824-4.104-14.904-5.616-11.952 1.152 3.456 8.568 9.864 10.872 6.912 3.456-.72-1.728-2.592-3.384-4.032-3.888 0-.144.072-.288.144-.432 4.752 2.52 12.24 2.52 8.928-.288" style="fill:#273785;stroke:none;stroke-width:.193545;stroke-linejoin:round" transform="matrix(1.45116 0 0 1.45152 -364.125 -637.499)"/><path d="M343.152 446.538c-4.896-3.168-15.408-2.664-11.664 3.024 4.392 7.488 12.312 9.72 7.632 2.52-.792-1.512-3.744-2.88-5.112-3.168 0-.144.072-.288.072-.432 4.536 1.728 12.24.432 9.072-1.944" style="fill:#273785;stroke:none;stroke-width:.193545;stroke-linejoin:round" transform="matrix(1.45116 0 0 1.45152 -364.125 -637.499)"/><path d="M330.696 441.57c-5.472-1.8-15.408 1.224-10.368 5.76 5.688 6.192 14.04 6.48 7.92.648-1.152-1.224-4.104-2.016-5.544-1.944v-.432c5.256.432 12.456-2.736 7.992-4.032" style="fill:#273785;stroke:none;stroke-width:.193545;stroke-linejoin:round" transform="matrix(1.45116 0 0 1.45152 -364.125 -637.499)"/><path d="M317.664 439.194c-5.832 0-14.4 5.472-8.208 8.208 6.552 5.184 15.192 2.736 7.632-1.512-1.44-.792-4.104-.864-5.4-.288 0-.144-.072-.288-.144-.432 5.76-1.08 11.592-5.976 6.12-5.976" style="fill:#273785;stroke:none;stroke-width:.193545;stroke-linejoin:round" transform="matrix(1.45116 0 0 1.45152 -364.125 -637.499)"/><path d="M305.424 439.554c-5.76.792-13.392 7.848-6.84 9.792 7.776 3.096 14.76.144 7.344-3.024-1.584-.576-4.68.288-5.904 1.008-.072-.144-.144-.216-.216-.36 4.824-1.944 10.152-8.28 5.616-7.416" style="fill:#273785;stroke:none;stroke-width:.193545;stroke-linejoin:round" transform="matrix(1.45116 0 0 1.45152 -364.125 -637.499)"/><path d="M293.256 441.714c-5.256 1.224-12.312 9.144-6.12 10.728 7.92 2.16 15.336-1.872 7.92-3.888-1.656-.576-4.968.72-6.12 1.44-.072-.144-.144-.288-.216-.36 4.752-2.376 8.928-9.144 4.536-7.92" style="fill:#273785;stroke:none;stroke-width:.193545;stroke-linejoin:round" transform="matrix(1.45116 0 0 1.45152 -364.125 -637.499)"/><path d="M281.736 446.682c-5.328 2.808-10.656 12.6-3.888 12.168 8.64.36 14.832-5.76 6.336-5.76-1.656-.072-4.248 1.872-5.184 2.88l-.288-.288c3.168-2.808 6.264-10.584 3.024-9" style="fill:#273785;stroke:none;stroke-width:.193545;stroke-linejoin:round" transform="matrix(1.45116 0 0 1.45152 -364.125 -637.499)"/><path d="M270.648 454.314c-4.32 3.96-6.696 14.544-.288 12.312 8.28-1.944 12.024-9.36 3.96-6.768-1.656.432-3.24 3.024-3.816 4.32-.144-.072-.288-.144-.36-.216 2.808-4.32 3.744-12.888.504-9.648" style="fill:#273785;stroke:none;stroke-width:.193545;stroke-linejoin:round" transform="matrix(1.45116 0 0 1.45152 -364.125 -637.499)"/><path d="M261.36 465.402c-2.52 5.256-1.584 15.768 3.528 11.448 7.632-5.04 9.072-13.032 2.016-7.776-1.368.936-2.52 4.032-2.736 5.4-.144 0-.288-.072-.36-.072 1.584-5.688.288-14.616-2.448-9M262.368 505.29c3.96 4.392 11.736 8.424 10.872.792-.648-8.352-6.984-12.888-5.904-5.112.504 1.584 1.8 4.32 3.096 4.824l-.216.432c-4.176-4.176-12.24-5.4-7.848-.936" style="fill:#273785;stroke:none;stroke-width:.193545;stroke-linejoin:round" transform="matrix(1.45116 0 0 1.45152 -364.125 -637.499)"/><path d="M271.152 515.73c4.248 3.312 12.888 4.608 10.584-2.448-2.808-8.496-10.656-10.584-6.84-3.168.864 1.44 2.952 3.744 4.248 3.96 0 .144 0 .288-.072.432-6.192-3.312-13.536-2.52-7.92 1.224" style="fill:#273785;stroke:none;stroke-width:.193545;stroke-linejoin:round" transform="matrix(1.45116 0 0 1.45152 -364.125 -637.499)"/><path d="M280.8 522.282c5.184 2.304 14.4 2.952 10.512-3.816-4.68-8.352-11.88-8.496-6.552-1.512 1.008 1.368 2.664 2.448 4.032 2.52 0 .144-.072.288-.072.432-6.12-1.872-13.608-.288-7.92 2.376" style="fill:#273785;stroke:none;stroke-width:.193545;stroke-linejoin:round" transform="matrix(1.45116 0 0 1.45152 -364.125 -637.499)"/><path d="M293.328 527.394c5.112 1.44 13.824-1.08 8.568-6.552-6.552-5.688-13.68-4.896-7.056.072 1.224 1.008 3.816 2.088 5.04 1.728 0 .144.072.288.072.432-6.696.072-13.608 3.456-6.624 4.32" style="fill:#273785;stroke:none;stroke-width:.193545;stroke-linejoin:round" transform="matrix(1.45116 0 0 1.45152 -364.125 -637.499)"/><path d="M305.136 529.914c5.688.576 14.4-3.816 7.92-7.992-6.48-4.896-13.68-3.024-7.272 1.152 1.296.792 4.32 1.44 5.688.936 0 .144.072.216.144.36-6.336 1.008-12.816 5.688-6.48 5.544" style="fill:#273785;stroke:none;stroke-width:.193545;stroke-linejoin:round" transform="matrix(1.45116 0 0 1.45152 -364.125 -637.499)"/><g style="stroke:none;stroke-width:.689019"><path d="m361.728 478.794 1.512.72c-1.296-7.704-5.544-15.408-13.464-22.32h3.312c8.136 7.344 12.168 15.624 13.032 23.832l1.944 1.008c-.648-8.784-4.608-17.712-12.744-25.632l.792-.36c8.352 8.64 12.312 17.712 12.816 26.424l4.536 2.376-4.608 2.376c-1.728 23.616-27.72 43.632-55.728 42.768v-.936c30.024.432 52.704-19.368 54.864-41.4l-1.944 1.008c-2.664 19.944-23.328 37.656-49.32 37.872l.576-1.8c24.48-1.44 42.912-17.208 46.224-34.776l-1.656.792c-3.672 16.488-20.88 31.176-45.072 32.832l-2.808-3.024c19.152-1.152 38.88-11.736 43.632-27.648l-45.288 23.04-.216-.072v-1.512l58.176-29.448-58.176-30.384v-1.584l45.288 23.544c-1.368-3.96-3.456-7.992-6.48-12.168v-4.104c6.408 5.616 9.576 11.88 10.8 18.576m-49.608 37.08-44.856-22.536c0 1.224-.072 2.592-.288 4.032-1.944 7.632-8.784.576-10.224-5.04 6.984 3.672 7.128 3.96 7.272 4.248.072-.072.216-.144.288-.216-.792-1.008-1.296-3.456-1.224-5.184l-.36-.216a1.09 1.09 0 0 1-1.08.936c-.576 0-1.008-.504-1.008-1.08 0-.288.144-.576.288-.792l-10.008-5.04 5.544-2.952c-.144-1.08-.216-2.16 0-3.24.288-4.032 2.232-2.16 3.744 1.296l.432-.216a.82.82 0 0 1-.216-.576c0-.576.504-1.008 1.008-1.008s.864.288 1.008.648l49.68-25.992v1.584l-58.248 30.744 58.248 29.088z" style="fill:#273785;stroke:none;stroke-width:.689019" transform="matrix(1.45116 0 0 1.45152 -364.125 -637.499)"/><path d="m361.728 478.794 1.512.72c-1.296-7.704-5.544-15.408-13.464-22.32h3.312c8.136 7.344 12.168 15.624 13.032 23.832l1.944 1.008c-.648-8.784-4.608-17.712-12.744-25.632l.792-.36c8.352 8.64 12.312 17.712 12.816 26.424l4.536 2.376-4.608 2.376c-1.728 23.616-27.72 43.632-55.728 42.768v-.936c30.024.432 52.704-19.368 54.864-41.4l-1.944 1.008c-2.664 19.944-23.328 37.656-49.32 37.872l.576-1.8c24.48-1.44 42.912-17.208 46.224-34.776l-1.656.792c-3.672 16.488-20.88 31.176-45.072 32.832l-2.808-3.024c19.152-1.152 38.88-11.736 43.632-27.648l-45.288 23.04-45.072-22.608c0 1.224-.072 2.592-.288 4.032-1.944 7.632-8.784.576-10.224-5.04 6.984 3.672 7.128 3.96 7.272 4.248.072-.072.216-.144.288-.216-.792-1.008-1.296-3.456-1.224-5.184l-.36-.216a1.09 1.09 0 0 1-1.08.936c-.576 0-1.008-.504-1.008-1.08 0-.288.144-.576.288-.792l-10.008-5.04 5.544-2.952c-.144-1.08-.216-2.16 0-3.24.288-4.032 2.232-2.16 3.744 1.296l.432-.216a.82.82 0 0 1-.216-.576c0-.576.504-1.008 1.008-1.008s.864.288 1.008.648l49.68-25.992 45.288 23.544c-1.368-3.96-3.456-7.992-6.48-12.168v-4.104c6.408 5.616 9.576 11.88 10.8 18.576M312.12 454.53l58.176 30.384-58.176 29.448-58.248-29.088z" style="fill:none;stroke:none;stroke-width:.193545;stroke-linejoin:round" transform="matrix(1.45116 0 0 1.45152 -364.125 -637.499)"/></g><g style="stroke:none;stroke-width:.689019"><path d="M297.72 497.658h1.584V487.65h7.848v-10.152h-9.432v2.808h6.192v4.536h-6.192zm-.072 0h.072v-12.816h-6.264v-4.536h6.264v-2.808h-9.648v10.152h7.992v10.008z" style="fill:#fff;stroke:none;stroke-width:.689019" transform="matrix(1.45116 0 0 1.45152 -364.125 -637.499)"/><path d="M297.648 497.658h1.656V487.65h7.848v-10.152h-19.08v10.152h7.992v10.008zm0-17.352h6.264v4.536h-12.456v-4.536z" style="fill:none;stroke:none;stroke-width:.193545;stroke-linejoin:round" transform="matrix(1.45116 0 0 1.45152 -364.125 -637.499)"/></g><g style="stroke:none;stroke-width:.689019"><path d="m333.216 495.786 2.808 2.736 1.656-2.232-3.168-2.88 2.52-4.824-2.52-1.224-1.296 2.736v.072zm0-10.08h4.68v-2.664h-3.528v-1.152h3.024v-2.016l-2.232-2.376h2.232v-2.376l-4.176-3.96v2.736-.072l1.152 1.296h-1.152v3.312l1.152 1.44h-1.152zm-8.712 0h1.44c0 .576.288 1.152.648 1.728h-2.088v2.016h1.152v2.016h-1.152v2.16h1.152v2.016h-1.152v2.016h3.672v-7.128c.864 1.008 1.8 2.448 2.88 3.528l-2.304 2.736 1.872 2.088 2.592-3.096v-5.616l-.648 1.296c-1.584-1.512-3.024-3.528-3.672-5.76h4.32v-5.832h-1.152l1.152-1.44v-3.312h-1.152l1.152-1.224v-2.736l-.144-.144-4.176 4.104v2.376h2.16l-2.16 2.376v2.016h3.168v1.152h-3.888c-.576-4.032-.792-8.064-.864-12.024h-2.52c.072 3.96.288 7.992.864 12.024h-1.152zm0 1.728h-4.824v2.016h1.224v2.016h-1.224v2.16h1.224v2.016h-1.224v2.016h4.824v-2.016h-1.152v-2.016h1.152v-2.16h-1.152v-2.016h1.152zm0-4.392h-4.824v2.664h4.824zm-4.824 4.392h-3.528v10.224h3.528v-2.016h-1.224v-2.016h1.224v-2.16h-1.224v-2.016h1.224zm0-4.392H315v2.664h4.68z" style="fill:#fff;stroke:none;stroke-width:.689019" transform="matrix(1.45116 0 0 1.45152 -364.125 -637.499)"/><path d="M324.504 485.706h1.44c0 .576.288 1.152.648 1.728h-10.44v10.224h12.024v-7.128c.864 1.008 1.8 2.448 2.88 3.528l-2.304 2.736 1.872 2.088 2.592-3.096 2.808 2.736 1.656-2.232-3.168-2.88 2.52-4.824-2.52-1.224-1.296 2.736-.648 1.368c-1.584-1.512-3.024-3.528-3.672-5.76h9v-2.664h-3.528v-1.152h3.024v-2.016l-2.232-2.376h2.232v-2.376l-4.176-3.96-.144-.144-4.176 4.104v2.376h2.16l-2.16 2.376v2.016h3.168v1.152h-3.888c-.576-4.032-.792-8.064-.864-12.024h-2.52c.072 3.96.288 7.992.864 12.024H315v2.664h4.68zm8.712-7.272 1.152 1.44h-2.304zm0-3.312h-1.152l1.152-1.296 1.152 1.296h-.792zm-8.712 20.52h1.152v-2.016h-2.304v2.016zm0-4.176h1.152v-2.016h-2.304v2.016zm-4.824 2.16h1.224v2.016h-2.448v-2.016zm0-4.176h1.224v2.016h-2.448v-2.016z" style="fill:none;stroke:none;stroke-width:.193545;stroke-linejoin:round" transform="matrix(1.45116 0 0 1.45152 -364.125 -637.499)"/></g><g style="stroke:none;stroke-width:.689019"><path d="m319.752 470.37 4.32 4.752v2.376h-2.16l2.16 2.376v2.016h-4.392v-2.016h1.224l-1.224-1.44v-3.312h1.224l-1.224-1.224v-3.528zm-.072 11.52H315v-2.016l2.52-2.376h-1.944v-2.376l4.104-4.752v3.528l-1.224 1.224h1.224v3.312l-1.224 1.44h1.224z" style="fill:#fff;stroke:none;stroke-width:.689019" transform="matrix(1.45116 0 0 1.45152 -364.125 -637.499)"/><path d="m319.752 470.37 4.32 4.752v2.376h-2.16l2.16 2.376v2.016H315v-2.016l2.52-2.376h-1.944v-2.376zm-.072 3.528-1.224 1.224h2.448zm0 4.536-1.224 1.44h2.448z" style="fill:none;stroke:none;stroke-width:.193545;stroke-linejoin:round" transform="matrix(1.45116 0 0 1.45152 -364.125 -637.499)"/></g></g></svg>