<?xml version="1.0" standalone="no"?>
<!DOCTYPE svg PUBLIC "-//W3C//DTD SVG 20010904//EN"
 "http://www.w3.org/TR/2001/REC-SVG-20010904/DTD/svg10.dtd">
<svg version="1.0" xmlns="http://www.w3.org/2000/svg"
 width="640.000000pt" height="640.000000pt" viewBox="0 0 640.000000 640.000000"
 preserveAspectRatio="xMidYMid meet">
<metadata>
Created by potrace 1.14, written by Peter Selinger 2001-2017
</metadata>
<g transform="translate(0.000000,640.000000) scale(0.100000,-0.100000)"
fill="#000000" stroke="none">
<path d="M5250 6194 c-31 -13 -70 -59 -76 -90 -13 -72 46 -159 143 -207 50
-26 159 -59 235 -71 43 -8 77 -44 112 -119 39 -86 87 -256 104 -367 12 -78 4
-348 -13 -440 -1 -8 -6 -46 -10 -85 -4 -38 -8 -72 -10 -75 -1 -3 -6 -27 -9
-55 -12 -89 -16 -119 -23 -160 -3 -22 -7 -49 -9 -60 -12 -89 -43 -222 -69
-300 -65 -195 -136 -263 -316 -300 -24 -5 -111 -16 -176 -21 -32 -3 -422 -7
-868 -9 -445 -2 -857 -6 -915 -9 -652 -29 -947 -27 -1136 9 -85 16 -128 36
-150 70 -9 14 -23 25 -32 25 -8 0 -48 16 -88 35 -97 47 -173 124 -297 300
-127 183 -127 182 -322 350 -75 64 -121 135 -174 271 -73 187 -93 234 -103
234 -5 0 -8 -4 -8 -9 0 -4 -17 -30 -38 -57 -21 -27 -49 -70 -62 -97 -14 -26
-33 -57 -42 -69 l-17 -23 -28 21 c-15 12 -53 58 -83 102 -30 45 -58 82 -62 82
-8 0 -4 -112 7 -185 6 -47 5 -51 -22 -71 -15 -11 -51 -28 -78 -37 -28 -10 -81
-35 -119 -57 -37 -22 -70 -40 -72 -40 -2 0 -13 -8 -25 -17 -50 -41 -80 -75
-113 -125 -47 -73 -108 -126 -153 -134 -7 -1 -27 -12 -45 -25 -74 -51 -97
-102 -83 -176 4 -21 9 -49 11 -63 8 -45 84 -186 117 -217 46 -45 97 -70 164
-82 32 -6 67 -13 78 -15 11 -2 45 -7 75 -11 69 -9 118 -34 165 -82 45 -47 59
-72 102 -193 19 -52 41 -105 48 -117 8 -12 15 -27 15 -34 0 -6 9 -24 21 -40
11 -16 22 -35 23 -42 1 -7 19 -47 39 -90 55 -116 94 -235 133 -397 56 -234
110 -389 207 -585 129 -260 150 -324 149 -446 0 -42 -5 -103 -11 -135 -5 -33
-13 -84 -16 -114 -4 -30 -8 -66 -10 -80 -2 -14 -7 -50 -10 -80 -3 -30 -8 -66
-10 -80 -2 -14 -6 -46 -9 -72 -3 -27 -9 -69 -12 -95 -11 -91 -75 -458 -86
-496 -19 -62 -74 -110 -164 -142 -162 -57 -189 -75 -215 -135 -15 -33 -13 -78
2 -96 7 -9 31 -25 53 -37 34 -17 62 -21 162 -24 67 -2 135 2 151 7 48 17 99
71 151 160 52 89 84 117 124 107 21 -6 26 1 60 82 21 48 58 146 84 217 62 171
69 190 135 324 31 63 70 151 88 195 18 44 37 89 41 100 5 11 23 52 41 90 49
109 63 140 64 145 2 11 55 106 74 135 22 32 20 36 46 -70 19 -74 91 -287 118
-345 8 -19 30 -69 47 -110 42 -99 152 -318 201 -400 43 -72 74 -107 171 -192
74 -65 98 -106 92 -157 -12 -102 -12 -121 7 -158 40 -82 154 -104 240 -47 66
44 94 107 93 209 0 119 -41 199 -179 360 -170 198 -212 299 -201 480 4 55 9
116 11 135 7 60 17 320 17 427 0 86 2 102 16 105 34 9 392 -4 532 -18 84 -9
379 -11 430 -3 25 4 68 9 95 13 84 10 118 15 155 21 l35 6 2 -68 c2 -37 8 -93
14 -123 19 -100 100 -392 144 -524 54 -159 57 -174 56 -255 -2 -101 -52 -184
-191 -320 -36 -35 -90 -80 -120 -100 -51 -33 -60 -36 -125 -34 -38 1 -79 3
-90 6 -55 12 -131 -54 -150 -129 -16 -63 -2 -98 50 -133 120 -81 302 -70 495
30 192 99 568 438 668 601 40 65 47 111 28 179 -22 77 -29 176 -15 210 6 15
21 32 35 39 13 8 24 20 24 29 0 9 20 57 45 106 25 50 48 102 50 115 18 83 22
112 21 149 -1 22 1 41 4 41 3 0 34 -32 70 -72 118 -130 254 -265 320 -318 36
-28 72 -57 80 -64 59 -47 269 -171 390 -231 175 -86 199 -109 204 -199 3 -48
0 -77 -18 -165 -21 -99 -106 -281 -132 -281 -5 0 -29 -19 -52 -41 -70 -70 -72
-171 -3 -212 28 -16 96 -17 266 -2 190 18 237 99 325 567 29 150 35 215 35
353 0 147 -13 196 -71 266 -50 60 -68 91 -120 199 -97 205 -178 425 -200 545
-13 75 -6 290 13 380 9 45 11 254 2 310 -17 107 -54 203 -121 311 -119 193
-113 287 47 749 80 231 132 392 139 432 3 13 7 31 10 41 3 9 7 28 10 42 2 14
9 52 15 85 61 339 38 867 -50 1135 -50 154 -153 299 -269 377 -54 36 -142 77
-190 89 -19 4 -39 9 -45 10 -16 4 -148 32 -180 39 -55 10 -120 15 -135 9z"/>
</g>
</svg>
